<svg width="316" height="516" viewBox="0 0 316 516" fill="none" xmlns="http://www.w3.org/2000/svg">
<g opacity="0.2">
<path fill-rule="evenodd" clip-rule="evenodd" d="M169.5 333.128C250.41 333.128 316 267.538 316 186.628C316 105.719 250.41 40.1283 169.5 40.1283C88.5903 40.1283 23 105.719 23 186.628C23 267.538 88.5903 333.128 169.5 333.128Z" fill="#FF9B21"/>
<path fill-rule="evenodd" clip-rule="evenodd" d="M258.674 515.298C273.097 515.298 284.789 503.606 284.789 489.183C284.789 474.76 273.097 463.067 258.674 463.067C244.251 463.067 232.559 474.76 232.559 489.183C232.559 503.606 244.251 515.298 258.674 515.298Z" fill="#2B44FF"/>
<path fill-rule="evenodd" clip-rule="evenodd" d="M145.296 0L176.506 31.2109L145.296 62.4217L114.085 31.2109L145.296 0Z" fill="#2B44FF"/>
<path fill-rule="evenodd" clip-rule="evenodd" d="M58.6695 449.5L73.9565 464.787L58.6695 480.074L43.3826 464.787L58.6695 449.5Z" fill="#FF9B21"/>
<path fill-rule="evenodd" clip-rule="evenodd" d="M279.694 40.1283L287.337 47.7717L279.694 55.4152L272.05 47.7717L279.694 40.1283Z" fill="#2026A2"/>
</g>
<g filter="url(#filter0_d)">
<rect x="43" y="67.8396" width="124.257" height="255.446" rx="36.45" transform="rotate(-2 43 67.8396)" fill="#F2F2F2"/>
</g>
<path fill-rule="evenodd" clip-rule="evenodd" d="M72.9175 72.2437C59.5051 72.7121 49.012 83.9646 49.4803 97.377L56.3073 292.875C56.7756 306.287 68.0281 316.781 81.4405 316.312L145.808 314.064C159.221 313.596 169.714 302.343 169.245 288.931L162.418 93.4331C161.95 80.0208 150.698 69.5276 137.285 69.996L72.9175 72.2437ZM127.181 79.1765C132.05 79.0065 135.86 74.9211 135.69 70.0517L74.8539 72.1761C75.024 77.0456 79.1093 80.8552 83.9787 80.6851L127.181 79.1765Z" fill="#E5E5E5"/>
<mask id="mask0" mask-type="alpha" maskUnits="userSpaceOnUse" x="52" y="62" width="167" height="255">
<rect x="52.4002" y="67.5114" width="157.921" height="249.505" transform="rotate(-2 52.4002 67.5114)" fill="white"/>
</mask>
<g mask="url(#mask0)">
<path fill-rule="evenodd" clip-rule="evenodd" d="M168.656 125.302C170.308 131.486 173.076 136.376 175.347 137.664C181.043 140.895 197.557 124.634 200.372 114.655C203.187 104.676 187.807 84.289 174.321 96.4237C169.64 100.635 167.646 106.502 167.276 112.503L139.621 131.068L154.24 145.186L168.656 125.302Z" fill="#B28B67"/>
<path fill-rule="evenodd" clip-rule="evenodd" d="M208.065 110.171C204.928 113.42 199.814 113.611 196.438 110.682C194.055 109.474 191.294 107.611 188.508 105.259C187.84 106.458 186.931 107.676 185.749 108.901C184.704 109.982 183.477 111.014 182.132 111.966C182.215 110.744 181.88 109.572 181.11 108.828C178.955 106.747 175.746 107.069 173.931 108.948C171.627 111.334 171.34 114.391 173.219 116.473C168.051 118.198 163.016 118.393 160.512 115.975C155.754 111.38 158.505 101.761 165.101 94.9311C165.333 94.6912 165.568 94.4574 165.806 94.2299C163.129 93.7783 160.24 93.7839 157.329 93.7895L157.329 93.7895C151.145 93.8014 144.867 93.8135 140.339 89.4408C131.279 80.6918 145.304 58.9682 157.962 71.1917C166.57 79.5045 169.594 84.847 171.454 90.2245C174.13 88.8932 176.873 88.2494 179.364 88.3556C180.037 88.3045 180.867 88.4351 181.816 88.7297C182.413 88.8935 182.985 89.11 183.527 89.3804C186.508 90.6981 190.245 93.2066 193.926 96.5208C194.613 97.1397 195.272 97.7635 195.901 98.3872C199.147 95.0465 204.491 94.9631 207.848 98.2056C211.212 101.454 211.309 106.811 208.065 110.171Z" fill="#191847"/>
<path fill-rule="evenodd" clip-rule="evenodd" d="M39.4373 262.236C39.4373 262.236 67.4605 276.909 89.0788 281.504C110.697 286.1 131.969 277.197 131.969 277.197C131.969 277.197 104.63 262.438 85.7624 258.428C66.8944 254.417 39.4373 262.236 39.4373 262.236Z" fill="#E5E5E5"/>
<path fill-rule="evenodd" clip-rule="evenodd" d="M104.571 293.174C104.441 292.845 104.346 292.497 104.29 292.13C103.128 284.539 76.7124 199.69 75.4214 184.93L123.304 195.108C124.285 206.33 124.728 275.542 123.964 289.17C125.979 311.35 124.908 381.57 125.607 386.599C126.343 391.89 115.239 394.878 113.854 388.272C111.649 377.76 107.181 349.021 106.126 331.829C105.137 315.712 104.608 301.289 104.571 293.174Z" fill="#997659"/>
<path fill-rule="evenodd" clip-rule="evenodd" d="M63.4297 294.103C42.9406 294.888 -30.0703 288.662 -35.2474 289.019C-40.5729 289.386 -42.7737 278.094 -36.0911 277.169C-25.4579 275.699 3.50391 273.234 20.716 273.375C34.5604 273.488 47.1381 273.853 55.5421 274.287C59.7107 251.289 68.2194 195.779 72.8004 184.373L115.167 193.378C110.774 204.316 76.4319 283.636 71.5598 291.271C69.9436 294.023 66.7216 294.706 63.4297 294.103Z" fill="#B28B67"/>
<path fill-rule="evenodd" clip-rule="evenodd" d="M72.9373 184.402C72.9373 184.402 102.646 182.336 125.932 195.666C126.102 223.364 137.954 236.861 131.806 277.964C100.677 285.979 70.9973 254.603 39.1141 262.095C34.8927 241.239 56.2603 197.715 72.9373 184.402Z" fill="#2B44FF"/>
<path fill-rule="evenodd" clip-rule="evenodd" d="M170.622 254.723L163.233 222.059L149.053 229.266L161.974 255.169C161.86 266.827 162.626 272.393 164.269 271.867C165.656 271.423 165.974 270.158 166.268 268.992C166.497 268.083 166.71 267.236 167.401 266.885C168.979 266.083 172.701 269.546 176.093 272.983C179.485 276.421 179.83 273.886 179.647 272.327C177.865 266.886 174.857 261.018 170.622 254.723ZM33.5503 206.192C38.3696 203.327 72.1436 166.835 72.1436 166.835L86.9464 176.531C86.9464 176.531 44.4247 211.917 41.5684 213.917C37.858 216.515 36.9521 223.202 36.3379 227.737C36.2428 228.438 36.1548 229.088 36.0644 229.663C33.1299 229.203 32.8351 227.265 32.5244 225.222C32.1734 222.914 31.802 220.472 27.5836 219.873C25.9538 219.642 24.3225 219.56 22.7286 219.48C17.2232 219.205 12.1656 218.952 9.16846 212.628C8.6933 211.625 9.01876 209.224 12.0488 209.15C19.5977 208.965 31.1943 207.592 33.5503 206.192Z" fill="#B28B67"/>
<path fill-rule="evenodd" clip-rule="evenodd" d="M154.705 132.034L161.529 134.97C154.973 168.212 157.868 204.165 170.214 242.83L134.621 254.055C128.212 206.256 132.539 164.045 154.705 132.034Z" fill="#191847"/>
<path fill-rule="evenodd" clip-rule="evenodd" d="M77.8858 191.719L132.569 227.23C132.569 227.23 143.531 168.746 164.477 136.493L149.575 123.327C123.09 135.73 102.781 158.988 77.8858 191.719Z" fill="#DDE3E9"/>
<path fill-rule="evenodd" clip-rule="evenodd" d="M37.8312 198.981C87.5674 135.487 149.213 123.092 149.213 123.092L149.219 123.112C149.223 123.109 149.228 123.107 149.233 123.104L150.309 123.804C152.199 125.125 156.041 127.866 156.041 127.866L152.64 141.83C139.762 163.044 105.573 230.477 105.573 230.477L69.7801 207.232C67.9638 210.162 66.1949 213.181 64.4842 216.29L37.8312 198.981Z" fill="#2F3676"/>
<path fill-rule="evenodd" clip-rule="evenodd" d="M69.6048 207.516C77.494 194.742 86.2883 183.648 95.1002 174.163C87.8332 187.489 79.9541 204.086 79.5766 213.991L69.6048 207.516Z" fill="black" fill-opacity="0.1"/>
<path fill-rule="evenodd" clip-rule="evenodd" d="M91.8025 190.673L114.807 193.946L109.478 202.152L91.8025 190.673Z" fill="white" fill-opacity="0.2"/>
</g>
<path fill-rule="evenodd" clip-rule="evenodd" d="M218.444 184.045C214.71 184.311 211.48 183.713 210.335 182.702C207.466 180.167 213.32 167.928 218.303 164.466C223.287 161.004 237.485 165.622 233.338 175.399C231.898 178.793 229.033 181.016 225.785 182.366L220.774 201.209L210.188 195.815L218.444 184.045Z" fill="#B28B67"/>
<path fill-rule="evenodd" clip-rule="evenodd" d="M216.979 155.471C217.59 154.812 218.516 154.453 219.411 154.662C219.628 154.713 219.836 154.795 220.031 154.904C220.1 154.943 220.11 154.974 220.168 154.941C220.212 154.917 220.258 154.827 220.29 154.789C220.391 154.67 220.498 154.557 220.613 154.453C221.004 154.095 221.483 153.846 221.988 153.688C222.932 153.393 224 153.401 224.924 153.774C225.429 153.979 225.87 154.302 226.247 154.693C226.443 154.895 226.621 155.114 226.787 155.34C226.837 155.408 226.972 155.685 227.045 155.709C227.125 155.735 227.37 155.626 227.455 155.61C228.498 155.417 229.54 155.663 230.472 156.146C231.523 156.691 232.512 157.262 233.064 158.353C233.181 158.584 233.283 158.824 233.371 159.067C233.418 159.195 233.461 159.324 233.497 159.456C233.52 159.535 233.54 159.614 233.557 159.695C233.587 159.831 233.559 159.856 233.703 159.845C234.258 159.804 234.81 159.933 235.273 160.246C235.548 160.432 235.789 160.665 236.001 160.919C236.073 161.006 236.207 161.272 236.304 161.324C236.401 161.375 236.686 161.337 236.806 161.351C237.451 161.427 238.061 161.676 238.585 162.059C239.125 162.455 239.584 162.984 239.917 163.563C240.078 163.842 240.199 164.121 240.249 164.439C240.27 164.577 240.282 164.716 240.317 164.851C240.337 164.93 240.404 165.034 240.395 165.116C240.401 165.067 241.189 165.149 241.26 165.165C241.636 165.247 241.964 165.436 242.234 165.709C242.743 166.221 243.038 166.939 243.234 167.62C243.335 167.97 243.395 168.332 243.417 168.695C243.428 168.869 243.43 169.043 243.424 169.217C243.422 169.302 243.4 169.398 243.41 169.481C243.424 169.587 243.46 169.607 243.541 169.692C243.951 170.122 244.256 170.65 244.399 171.227C244.543 171.811 244.517 172.425 244.344 172.999C244.334 173.033 244.272 173.163 244.282 173.189C244.295 173.225 244.401 173.266 244.436 173.289C244.56 173.372 244.679 173.461 244.792 173.558C245.001 173.735 245.191 173.936 245.354 174.156C245.992 175.012 246.199 176.114 246.044 177.157C245.881 178.251 245.33 179.319 244.489 180.045C244.353 180.162 244.207 180.269 244.054 180.362C243.959 180.419 243.942 180.411 243.931 180.516C243.919 180.632 243.94 180.762 243.936 180.88C243.923 181.265 243.857 181.646 243.75 182.016C243.574 182.621 243.33 183.228 242.943 183.732C242.763 183.965 242.55 184.175 242.304 184.34C242.179 184.424 242.046 184.496 241.907 184.555C241.835 184.585 241.761 184.612 241.686 184.636C241.644 184.649 241.594 184.654 241.554 184.673C241.456 184.719 241.475 184.65 241.449 184.777C241.412 184.955 241.43 185.159 241.412 185.341C241.393 185.529 241.367 185.715 241.336 185.902C241.273 186.278 241.191 186.653 241.074 187.016C240.849 187.715 240.48 188.393 239.873 188.83C239.614 189.017 239.313 189.144 238.998 189.201C238.844 189.229 238.686 189.24 238.529 189.236C238.449 189.234 238.359 189.205 238.297 189.252C238.231 189.304 238.21 189.462 238.182 189.543C237.942 190.247 237.638 190.96 237.115 191.504C236.633 192.005 235.971 192.327 235.281 192.411C233.942 192.575 232.617 191.853 231.844 190.781C231.643 190.502 231.476 190.198 231.353 189.876C230.375 190.362 229.193 189.729 228.459 189.074C227.544 188.259 227.07 187.092 227.074 185.878C225.992 186.351 224.725 185.373 224.711 184.255C224.708 183.982 224.762 183.71 224.851 183.452C224.898 183.317 224.975 183.195 225.025 183.062C225.09 182.894 225.063 182.684 225.08 182.498C225.114 182.136 225.198 181.786 225.361 181.46C225.445 181.289 225.551 181.135 225.653 180.975C225.745 180.831 225.775 180.668 225.827 180.507C226.075 180.689 226.442 180.784 226.738 180.836C227.027 180.886 227.365 180.803 227.637 180.707C228.267 180.486 228.805 180.049 229.263 179.575C230.267 178.534 230.867 176.976 229.971 175.667C229.554 175.058 227.823 174.177 227.056 173.982C226.249 173.777 224.615 174.956 224.498 175.085C224.426 175.166 224.38 175.287 224.263 175.305C224.006 175.346 223.817 174.952 223.738 174.765C223.602 174.442 223.568 174.088 223.559 173.742C223.539 172.987 223.603 172.221 223.75 171.481C223.863 170.911 224.035 170.35 224.098 169.77C224.161 169.193 224.092 168.614 223.782 168.111C223.445 167.563 222.964 167.121 222.523 166.66C222.085 166.203 221.678 165.71 221.466 165.106C221.419 164.973 221.378 164.836 221.357 164.697C221.34 164.587 221.362 164.404 221.3 164.308C221.204 164.159 220.9 164.264 220.743 164.279C219.973 164.352 219.224 164.62 218.545 164.984C217.869 165.346 217.275 165.723 216.696 166.216C216.267 166.582 215.843 167.115 215.311 167.323C215.073 167.416 213.895 166.945 213.606 166.611C213.318 166.277 213.105 165.684 213.106 165.381C213.107 165.07 213.215 164.783 213.406 164.54C213.519 164.397 213.659 164.281 213.774 164.143C213.87 164.027 213.96 163.916 214.085 163.828C214.323 163.662 214.613 163.604 214.897 163.663C214.76 163.291 214.69 162.895 214.705 162.499C214.719 162.088 214.794 161.616 214.943 161.233C215.064 160.921 215.267 160.637 215.559 160.465C215.866 160.285 216.256 160.264 216.602 160.23C216.362 159.715 216.214 159.162 216.148 158.599C216.018 157.505 216.206 156.304 216.979 155.471Z" fill="#191847"/>
<path fill-rule="evenodd" clip-rule="evenodd" d="M211.317 237.743L187.019 299.241L170.722 351.233H164.287L189.201 237.743L211.317 237.743Z" fill="#997659"/>
<path fill-rule="evenodd" clip-rule="evenodd" d="M216.21 237.743C216.468 259.354 220.242 288.449 220.845 289.796C221.447 291.143 262.467 324.058 262.467 324.058L258.035 328.801C258.035 328.801 209.635 300.581 207.396 296.817C205.156 293.053 197.864 258.417 192.01 237.743H216.21Z" fill="#B28B67"/>
<path fill-rule="evenodd" clip-rule="evenodd" d="M261.417 324.217C261.812 323.114 262.989 322.432 264.072 322.878C264.868 323.206 265.694 323.6 266.137 323.972C267.162 324.833 268.843 326.826 268.843 326.826C267.845 328.016 250.896 348.215 250.896 348.215C250.896 348.215 247.44 346.736 248.727 344.755C250.015 342.774 250.835 341.438 250.835 341.438L254.602 328.277C254.757 327.735 255.328 327.428 255.865 327.599L257.457 328.103C257.457 328.103 259.628 327.091 260.5 326.052C260.85 325.635 261.165 324.922 261.417 324.217Z" fill="#E4E4E4"/>
<path fill-rule="evenodd" clip-rule="evenodd" d="M170.967 348.694C172.065 348.287 173.345 348.751 173.699 349.867C173.959 350.687 174.188 351.573 174.188 352.151C174.188 353.49 173.742 356.059 173.742 356.059C172.189 356.059 145.82 356.059 145.82 356.059C145.82 356.059 144.732 352.461 147.077 352.174C149.422 351.887 150.973 351.656 150.973 351.656L163.476 346.082C163.991 345.853 164.593 346.094 164.808 346.614L165.444 348.158C165.444 348.158 167.615 349.171 168.972 349.171C169.516 349.171 170.265 348.954 170.967 348.694Z" fill="#E4E4E4"/>
<path fill-rule="evenodd" clip-rule="evenodd" d="M194.98 345.878L164.384 342.557L187.059 237.743H214.463L194.98 345.878Z" fill="#69A1AC"/>
<path fill-rule="evenodd" clip-rule="evenodd" d="M256.139 316.406L236.069 340.161C236.069 340.161 204.361 305.531 199.098 294.968C193.834 284.406 189.634 237.743 189.634 237.743H220.486C220.486 237.743 222.78 278.795 223.579 280.705C224.378 282.616 256.139 316.406 256.139 316.406Z" fill="#89C5CC"/>
<path fill-rule="evenodd" clip-rule="evenodd" d="M160.983 206.129L176.482 218.112L169.149 223.846L158.606 210.602C152.393 207.783 149.63 206.003 150.315 205.261C150.894 204.636 151.644 204.78 152.335 204.912C152.874 205.016 153.376 205.112 153.734 204.832C154.55 204.194 153.634 201.367 152.65 198.72C151.665 196.074 153.096 196.517 153.877 196.999C156.323 199.287 158.691 202.331 160.983 206.129ZM235.994 237.261L246.324 237.762C248.612 257.021 250.188 267.655 251.051 269.664C251.684 271.137 256.696 275.775 260.201 278.459C261.609 279.536 260.938 280.785 260.368 281.096C256.779 283.058 254.301 281.439 251.603 279.676C250.822 279.166 250.022 278.643 249.172 278.192C246.972 277.025 245.958 278.053 244.999 279.025C244.15 279.885 243.345 280.701 241.799 279.91C241.954 279.607 242.136 279.269 242.332 278.904C243.599 276.546 245.468 273.069 244.606 270.563C244.164 269.277 241.293 258.177 235.994 237.261Z" fill="#B28B67"/>
<path fill-rule="evenodd" clip-rule="evenodd" d="M218.91 191.811L214.934 190.062C203.699 196.583 194.75 216.746 188.025 218.034C181.667 219.251 174.223 214.683 165.477 208.841L160.897 214.679C167.27 226.297 183.874 238.909 192.545 236.234C206.409 231.958 215.674 206.648 218.91 191.811Z" fill="#DB2721"/>
<path fill-rule="evenodd" clip-rule="evenodd" d="M224.002 248.523C224.002 248.523 199.02 242.294 187.25 239.36C185.571 238.941 186.492 236.595 187.04 235.432C193.362 222.008 208.095 209.512 213.107 189.409L224.123 190.39C229.375 206.678 228.078 224.797 224.002 248.523Z" fill="#DDE3E9"/>
<path fill-rule="evenodd" clip-rule="evenodd" d="M222.893 190.083L224.807 190.56C244.931 211.141 253.638 237.438 250.927 269.45L242.847 269.038C239.227 261.821 235.355 250.521 231.232 235.139C231.501 243.853 231.098 252.621 229.653 260.646L196.57 252.398C194.201 234.616 220.609 189.514 220.609 189.514L222.893 190.083Z" fill="#FF4133"/>
<defs>
<filter id="filter0_d" x="0.249451" y="52.7525" width="198.598" height="325.128" filterUnits="userSpaceOnUse" color-interpolation-filters="sRGB">
<feFlood flood-opacity="0" result="BackgroundImageFix"/>
<feColorMatrix in="SourceAlpha" type="matrix" values="0 0 0 0 0 0 0 0 0 0 0 0 0 0 0 0 0 0 127 0"/>
<feOffset dx="-10" dy="22"/>
<feGaussianBlur stdDeviation="17"/>
<feColorMatrix type="matrix" values="0 0 0 0 0 0 0 0 0 0 0 0 0 0 0 0 0 0 0.1 0"/>
<feBlend mode="normal" in2="BackgroundImageFix" result="effect1_dropShadow"/>
<feBlend mode="normal" in="SourceGraphic" in2="effect1_dropShadow" result="shape"/>
</filter>
</defs>
</svg>
