<svg xmlns="http://www.w3.org/2000/svg" viewBox="0 0 244.24 244.31"><defs><style>.cls-1{fill:#fff;}.cls-2{fill:#1a78f2;}</style></defs><title>facebook-logo</title><g id="Layer_2" data-name="Layer 2"><g id="Layer_1-2" data-name="Layer 1"><path class="cls-1" d="M141.24,111.53v10.66h17c14.92,0,17,.1,17,.72,0,.81-4.59,31.17-5.07,33.37l-.29,1.29H141.24v85.26a123.27,123.27,0,0,1-38.78-.11c.5-1,.53-7.51.53-42.41V157.57H71.92V122.19H103V105c0-19,.29-22.09,2.92-29.5,5.12-14.58,15.82-23.76,31.51-27,4.49-1,6.12-1,15.54-.81,8.79.19,20.7,1.24,23.09,2,.43.14.57,3.63.57,15.2V80l-10.13.28c-12.58.34-15.16,1-19.22,4.69C142.1,89.68,141.24,93.36,141.24,111.53Z"/><path class="cls-2" d="M244,130.41v0c-.18,3.42-.48,6.64-.9,9.4a120.83,120.83,0,0,1-27.33,60.82c-.07.07-.13.15-.2.23-.8.94-1.61,1.88-2.45,2.81s-1.7,1.87-2.57,2.79c-.24.26-.48.52-.73.77-.78.8-1.56,1.59-2.36,2.35s-1.41,1.37-2.12,2A121.45,121.45,0,0,1,145,242.34l-3.73.72V157.57h28.59l.29-1.29c.48-2.2,5.07-32.56,5.07-33.37,0-.62-2.06-.72-17-.72h-17V111.53c0-18.17.86-21.85,6-26.58,4.06-3.73,6.64-4.35,19.22-4.69L176.62,80V65c0-11.57-.14-15.06-.57-15.2-2.39-.77-14.3-1.82-23.09-2-9.42-.19-11.05-.14-15.54.81C121.73,51.77,111,61,105.91,75.53,103.28,82.94,103,86.05,103,105v17.16H71.92v35.38H103v42.74c0,34.9,0,41.4-.53,42.41-.08.16-.17.18-.28.15l-4.92-1c-23-4.45-45.66-16.92-62.87-34.66A120.84,120.84,0,0,1,1.11,139.83a140.72,140.72,0,0,1,0-35.28A120.81,120.81,0,0,1,34.39,37.14,122,122,0,0,1,111.93.28a154.47,154.47,0,0,1,28.07,1A122.66,122.66,0,0,1,243.13,104.55c.44,2.89.74,6.3.92,9.91a.76.76,0,0,1,0,.15C244.31,119.75,244.3,125.3,244,130.41Z"/></g></g></svg>